HIERARCHY
ROOT Hips
{
	OFFSET 0.000000 0.000000 0.000000
	CHANNELS 6 Xposition Yposition Zposition Xrotation Yrotation Zrotation
	JOINT LeftUpLeg_virtual
	{
		OFFSET 0.000000 0.000000 0.000000
		CHANNELS 3 Xrotation Yrotation Zrotation
		JOINT LeftUpLeg
		{
			OFFSET 11.394100 -6.187798 -0.413800
			CHANNELS 3 Xrotation Yrotation Zrotation
			JOINT LeftLeg
			{
				OFFSET 0.430247 -32.302673 3.732800
				CHANNELS 3 Xrotation Yrotation Zrotation
				JOINT LeftFoot
				{
					OFFSET -0.430247 -48.264931 -6.423300
					CHANNELS 3 Xrotation Yrotation Zrotation
					JOINT LeftToeBase
					{
						OFFSET 4.230900 -16.068199 23.438400
						CHANNELS 3 Xrotation Yrotation Zrotation
						JOINT LeftToe_End
						{
							OFFSET 4.510700 0.695400 19.974600
							CHANNELS 3 Xrotation Yrotation Zrotation
							End Site
							{
								OFFSET 0 0 0
							}
						}
					}
				}
			}
		}
	}
	JOINT RightUpLeg_virtual
	{
		OFFSET 0.000000 0.000000 0.000000
		CHANNELS 3 Xrotation Yrotation Zrotation
		JOINT RightUpLeg
		{
			OFFSET -11.333700 -6.187798 -0.413800
			CHANNELS 3 Xrotation Yrotation Zrotation
			JOINT RightLeg
			{
				OFFSET -0.430392 -32.302628 3.733000
				CHANNELS 3 Xrotation Yrotation Zrotation
				JOINT RightFoot
				{
					OFFSET 0.430392 -48.264973 -6.423500
					CHANNELS 3 Xrotation Yrotation Zrotation
					JOINT RightToeBase
					{
						OFFSET -4.230900 -16.068199 23.438400
						CHANNELS 3 Xrotation Yrotation Zrotation
						JOINT RightToe_End
						{
							OFFSET -4.510700 0.695400 19.974600
							CHANNELS 3 Xrotation Yrotation Zrotation
							End Site
							{
								OFFSET 0 0 0
							}
						}
					}
				}
			}
		}
	}
	JOINT Spine_virtual
	{
		OFFSET 0.000000 0.000000 0.000000
		CHANNELS 3 Xrotation Yrotation Zrotation
		JOINT Spine
		{
			OFFSET -0.002400 12.777504 0.315300
			CHANNELS 3 Xrotation Yrotation Zrotation
			JOINT Spine1
			{
				OFFSET -0.002067 5.816869 0.032633
				CHANNELS 3 Xrotation Yrotation Zrotation
				JOINT Spine1_split
				{
					OFFSET -0.002067 5.816869 0.032633
					CHANNELS 3 Xrotation Yrotation Zrotation
					JOINT Spine2
					{
						OFFSET -0.002067 5.816869 0.032633
						CHANNELS 3 Xrotation Yrotation Zrotation
						JOINT Neck_virtual
						{
							OFFSET 0.000000 0.000000 0.000000
							CHANNELS 3 Xrotation Yrotation Zrotation
							JOINT Neck
							{
								OFFSET -0.003700 21.199493 -0.826900
								CHANNELS 3 Xrotation Yrotation Zrotation
								JOINT Head
								{
									OFFSET 0.000000 20.442200 4.834800
									CHANNELS 3 Xrotation Yrotation Zrotation
									JOINT HeadTop_End
									{
										OFFSET 0.000000 34.668396 4.968400
										CHANNELS 3 Xrotation Yrotation Zrotation
										End Site
										{
											OFFSET 0 0 0
										}
									}
								}
							}
						}
						JOINT LeftShoulder_virtual
						{
							OFFSET 0.000000 0.000000 0.000000
							CHANNELS 3 Xrotation Yrotation Zrotation
							JOINT LeftShoulder
							{
								OFFSET 3.288150 8.794197 -1.372250
								CHANNELS 3 Xrotation Yrotation Zrotation
								JOINT LeftShoulder_split
								{
									OFFSET 3.288150 8.794197 -1.372250
									CHANNELS 3 Xrotation Yrotation Zrotation
									JOINT LeftArm
									{
										OFFSET 11.953299 -2.279007 -0.146200
										CHANNELS 3 Xrotation Yrotation Zrotation
										JOINT LeftForeArm
										{
											OFFSET 18.448900 0.000000 0.000000
											CHANNELS 3 Xrotation Yrotation Zrotation
											JOINT LeftHand
											{
												OFFSET 29.527798 0.000000 0.000000
												CHANNELS 3 Xrotation Yrotation Zrotation
												End Site
												{
													OFFSET 0 0 0
												}
											}
										}
									}
								}
							}
						}
						JOINT RightShoulder_virtual
						{
							OFFSET 0.000000 0.000000 0.000000
							CHANNELS 3 Xrotation Yrotation Zrotation
							JOINT RightShoulder
							{
								OFFSET -3.249400 8.794197 -1.372250
								CHANNELS 3 Xrotation Yrotation Zrotation
								JOINT RightShoulder_split
								{
									OFFSET -3.249400 8.794197 -1.372250
									CHANNELS 3 Xrotation Yrotation Zrotation
									JOINT RightArm
									{
										OFFSET -11.953299 -2.279007 -0.146200
										CHANNELS 3 Xrotation Yrotation Zrotation
										JOINT RightForeArm
										{
											OFFSET -18.448900 0.000000 0.000000
											CHANNELS 3 Xrotation Yrotation Zrotation
											JOINT RightHand
											{
												OFFSET -29.527802 0.000000 0.000000
												CHANNELS 3 Xrotation Yrotation Zrotation
												End Site
												{
													OFFSET 0 0 0
												}
											}
										}
									}
								}
							}
						}
					}
				}
			}
		}
	}
}
MOTION
Frames: 5
Frame Time: 0.03333333
-0.416835 79.081818 4.376129 0.000000 0.000000 0.000000 21.778874 -19.597630 7.769571 -79.982041 -0.415375 21.383984 56.406390 1.443223 4.772777 2.741767 0.842100 -18.766194 -3.131090 -0.152529 -0.991634 0.000000 0.000000 0.000000 21.081017 -20.230011 8.143016 -76.695170 -4.392860 -21.883556 58.855405 -1.236843 -8.798099 -5.756730 -2.603407 17.831754 -6.286357 1.587034 -1.596847 0.000000 0.000000 0.000000 24.150068 -21.998830 8.221433 16.148813 2.006855 -1.187067 10.151094 2.109133 -1.199122 1.060674 0.597859 0.752297 0.000000 0.000000 0.000000 10.178379 1.793246 -0.421353 -8.172679 5.289722 -9.121040 -40.903944 10.050369 8.656907 0.000000 0.000000 0.000000 10.173360 1.828185 -1.261826 3.695332 -6.004166 7.305828 -5.901148 -3.301784 -0.731963 -51.842461 4.864041 -60.887100 -2.086105 -83.754020 -0.746525 0.000000 0.000000 0.000000 11.381427 2.392891 -0.454767 2.869116 14.084211 4.323618 -0.240376 2.626862 0.976388 -41.203403 10.116776 45.954838 162.441706 88.334932 -162.950828 0.000000 0.000000 0.000000 
-0.298057 79.352852 4.630333 0.000000 0.000000 0.000000 22.080449 -19.284638 8.002401 -79.776623 0.053260 20.990240 55.478703 1.125471 5.025916 2.532822 0.710843 -18.764292 -3.256970 -0.122227 -0.849191 0.000000 0.000000 0.000000 21.416005 -20.166340 8.438366 -76.450403 -4.555304 -21.594767 58.040496 -0.926274 -9.337984 -5.718362 -2.894051 17.816315 -6.299533 1.701625 -1.585735 0.000000 0.000000 0.000000 24.173435 -21.565981 8.349137 16.212777 2.055324 -1.164790 10.000356 2.153489 -1.251261 1.031361 0.139761 0.772614 0.000000 0.000000 0.000000 10.305419 1.816419 -0.479103 -7.713094 5.307698 -8.797730 -41.096651 10.829745 8.391611 0.000000 0.000000 0.000000 10.213828 1.854063 -1.212409 3.479007 -5.268736 6.315488 -6.026108 -3.249436 -0.829593 -50.424421 5.368699 -61.842582 -3.127147 -85.837829 -1.911753 0.000000 0.000000 0.000000 11.391643 2.320311 -0.528990 2.762006 13.900764 5.556284 -0.628434 2.891196 0.792776 -39.518450 10.682465 46.694943 175.095028 85.062390 -175.700319 0.000000 0.000000 0.000000 
-0.293873 79.390999 4.858788 0.000000 0.000000 0.000000 22.346222 -19.112213 8.307185 -79.839946 0.465000 20.837498 55.059118 0.815988 5.227163 2.400486 0.553409 -18.901510 -3.329213 -0.116768 -0.605088 0.000000 0.000000 0.000000 21.856356 -20.205142 8.794665 -76.627291 -4.491855 -21.362911 57.724087 -0.775650 -9.756121 -5.681168 -2.959730 17.737439 -6.228675 1.809816 -1.571530 0.000000 0.000000 0.000000 24.220879 -21.242687 8.489584 16.270539 2.005199 -1.164096 9.966933 2.052736 -1.267598 0.963752 -0.077950 0.721852 0.000000 0.000000 0.000000 10.503331 1.699238 -0.520850 -7.198973 5.292518 -8.496942 -41.277688 11.614142 8.042111 0.000000 0.000000 0.000000 10.407040 1.735801 -1.114613 3.322179 -4.774136 5.702720 -5.943956 -3.141892 -0.867407 -48.863102 5.859548 -62.352688 -5.254483 -88.364937 -4.089767 0.000000 0.000000 0.000000 11.479835 2.093420 -0.581395 2.755993 13.608628 6.253223 -1.004839 2.988248 0.680127 -38.491593 10.667302 47.912449 177.676211 81.266328 -178.361347 0.000000 0.000000 0.000000 
-0.385914 79.250595 5.029068 0.000000 0.000000 0.000000 22.615171 -19.017229 8.627325 -80.064154 0.771514 20.892978 55.005723 0.609868 5.359990 2.285300 0.506931 -19.077130 -3.163696 -0.120861 -0.347873 0.000000 0.000000 0.000000 22.375659 -20.317407 9.164016 -77.029057 -4.338290 -21.176581 57.841197 -0.806684 -10.017735 -5.709405 -2.862432 17.514835 -6.073516 1.910781 -1.557295 0.000000 0.000000 0.000000 24.342466 -20.988649 8.598538 16.311072 1.874142 -1.152333 10.051624 1.870769 -1.250679 0.926167 -0.125871 0.742645 0.000000 0.000000 0.000000 10.745085 1.497127 -0.549509 -6.742508 5.261133 -8.261822 -41.511721 12.375954 7.605479 0.000000 0.000000 0.000000 10.717447 1.527639 -0.992985 3.218688 -4.571169 5.159116 -5.633045 -2.973570 -0.806680 -47.261344 6.335491 -62.454539 -174.622501 -89.207960 -173.409200 0.000000 0.000000 0.000000 11.622143 1.785085 -0.614383 2.807757 13.290420 6.524700 -1.301113 2.993571 0.667500 -37.863560 9.944482 49.425725 178.589175 77.302380 -179.338351 0.000000 0.000000 0.000000 
-0.560280 79.004730 5.116116 0.000000 0.000000 0.000000 22.885652 -18.998793 8.918619 -80.292507 0.909150 21.070346 55.108825 0.545474 5.442654 2.165744 0.659876 -19.300549 -2.860256 -0.110890 -0.132415 0.000000 0.000000 0.000000 22.876067 -20.493752 9.485775 -77.591748 -4.161695 -21.007811 58.297106 -0.985151 -10.139458 -5.795880 -2.659865 17.286840 -6.071327 1.992712 -1.533082 0.000000 0.000000 0.000000 24.560766 -20.786310 8.695392 16.340135 1.687528 -1.101651 10.213727 1.662253 -1.204963 0.864752 -0.112894 0.713998 0.000000 0.000000 0.000000 10.996740 1.273014 -0.577671 -6.396538 5.179983 -8.136361 -41.790728 13.132385 7.069056 0.000000 0.000000 0.000000 11.078764 1.296195 -0.889553 3.135991 -4.571581 4.387755 -5.324767 -2.706422 -0.630078 -45.743963 6.698240 -62.314896 -179.228317 -87.260188 -177.926715 0.000000 0.000000 0.000000 11.837829 1.489957 -0.639540 2.877355 12.983304 6.508047 -1.547060 3.050630 0.710228 -37.337489 8.862972 50.846647 178.929031 73.740457 -179.738805 0.000000 0.000000 0.000000 
